{
  "asset": {
    "version": "2.0",
    "generator": "text2room"
  },
  "scene": 0,
  "scenes": [
    {
      "nodes": [
        0,
        2,
        4,
        6,
        8,
        10
      ]
    }
  ],
  "nodes": [
    {
      "mesh": 0,
      "name": "Room"
    },
    {
      "name": "wood_table_mesh",
      "mesh": 1
    },
    {
      "name": "wood_table",
      "translation": [
        1.0424506506885924,
        0.375,
        1.7730317724612852
      ],
      "rotation": [
        0.0,
        0.9793559526523106,
        0.0,
        0.20214331056081294
      ],
      "scale": [
        1.0,
        1.0,
        1.0
      ],
      "children": [
        1
      ]
    },
    {
      "name": "dining_chair_0_mesh",
      "mesh": 2
    },
    {
      "name": "dining_chair_0",
      "translation": [
        2.56287982272993,
        0.425,
        2.0443346159218634
      ],
      "rotation": [
        0.0,
        0.9961049749302464,
        0.0,
        -0.08817527385391657
      ],
      "scale": [
        1.0,
        1.0,
        1.0
      ],
      "children": [
        3
      ]
    },
    {
      "name": "dining_chair_1_mesh",
      "mesh": 3
    },
    {
      "name": "dining_chair_1",
      "translation": [
        -0.550270768424028,
        0.425,
        1.6606497024255673
      ],
      "rotation": [
        0.0,
        0.0352142323297151,
        0.0,
        0.9993797865883765
      ],
      "scale": [
        1.0,
        1.0,
        1.0
      ],
      "children": [
        5
      ]
    },
    {
      "name": "dining_chair_2_mesh",
      "mesh": 4
    },
    {
      "name": "dining_chair_2",
      "translation": [
        1.3218012173043392,
        0.425,
        0.1814165101275953
      ],
      "rotation": [
        0.0,
        0.7657909020726561,
        0.0,
        0.6430896471742861
      ],
      "scale": [
        1.0,
        1.0,
        1.0
      ],
      "children": [
        7
      ]
    },
    {
      "name": "dining_chair_3_mesh",
      "mesh": 5
    },
    {
      "name": "dining_chair_3",
      "translation": [
        1.2135375594338558,
        0.425,
        3.4100913907082937
      ],
      "rotation": [
        0.0,
        -0.7429476997288192,
        0.0,
        0.6693494718513314
      ],
      "scale": [
        1.0,
        1.0,
        1.0
      ],
      "children": [
        9
      ]
    }
  ],
  "meshes": [
    {
      "name": "RoomMesh",
      "primitives": [
        {
          "attributes": {
            "POSITION": 0,
            "NORMAL": 1
          },
          "indices": 2,
          "material": 0
        }
      ]
    },
    {
      "name": "wood_table_mesh",
      "primitives": [
        {
          "attributes": {
            "POSITION": 3,
            "NORMAL": 4
          },
          "indices": 5,
          "material": 1
        }
      ]
    },
    {
      "name": "dining_chair_0_mesh",
      "primitives": [
        {
          "attributes": {
            "POSITION": 6,
            "NORMAL": 7
          },
          "indices": 8,
          "material": 2
        }
      ]
    },
    {
      "name": "dining_chair_1_mesh",
      "primitives": [
        {
          "attributes": {
            "POSITION": 9,
            "NORMAL": 10
          },
          "indices": 11,
          "material": 3
        }
      ]
    },
    {
      "name": "dining_chair_2_mesh",
      "primitives": [
        {
          "attributes": {
            "POSITION": 12,
            "NORMAL": 13
          },
          "indices": 14,
          "material": 4
        }
      ]
    },
    {
      "name": "dining_chair_3_mesh",
      "primitives": [
        {
          "attributes": {
            "POSITION": 15,
            "NORMAL": 16
          },
          "indices": 17,
          "material": 5
        }
      ]
    }
  ],
  "accessors": [
    {
      "bufferView": 0,
      "componentType": 5126,
      "count": 24,
      "type": "VEC3",
      "max": [
        3.0,
        3.0,
        2.5
      ],
      "min": [
        -3.0,
        0,
        -2.5
      ]
    },
    {
      "bufferView": 1,
      "componentType": 5126,
      "count": 24,
      "type": "VEC3"
    },
    {
      "bufferView": 2,
      "componentType": 5125,
      "count": 36,
      "type": "SCALAR"
    },
    {
      "bufferView": 3,
      "componentType": 5126,
      "count": 8,
      "type": "VEC3",
      "max": [
        0.7,
        0.375,
        0.4
      ],
      "min": [
        -0.7,
        -0.375,
        -0.4
      ]
    },
    {
      "bufferView": 4,
      "componentType": 5126,
      "count": 8,
      "type": "VEC3"
    },
    {
      "bufferView": 5,
      "componentType": 5125,
      "count": 36,
      "type": "SCALAR"
    },
    {
      "bufferView": 6,
      "componentType": 5126,
      "count": 8,
      "type": "VEC3",
      "max": [
        0.225,
        0.425,
        0.25
      ],
      "min": [
        -0.225,
        -0.425,
        -0.25
      ]
    },
    {
      "bufferView": 7,
      "componentType": 5126,
      "count": 8,
      "type": "VEC3"
    },
    {
      "bufferView": 8,
      "componentType": 5125,
      "count": 36,
      "type": "SCALAR"
    },
    {
      "bufferView": 9,
      "componentType": 5126,
      "count": 8,
      "type": "VEC3",
      "max": [
        0.225,
        0.425,
        0.25
      ],
      "min": [
        -0.225,
        -0.425,
        -0.25
      ]
    },
    {
      "bufferView": 10,
      "componentType": 5126,
      "count": 8,
      "type": "VEC3"
    },
    {
      "bufferView": 11,
      "componentType": 5125,
      "count": 36,
      "type": "SCALAR"
    },
    {
      "bufferView": 12,
      "componentType": 5126,
      "count": 8,
      "type": "VEC3",
      "max": [
        0.225,
        0.425,
        0.25
      ],
      "min": [
        -0.225,
        -0.425,
        -0.25
      ]
    },
    {
      "bufferView": 13,
      "componentType": 5126,
      "count": 8,
      "type": "VEC3"
    },
    {
      "bufferView": 14,
      "componentType": 5125,
      "count": 36,
      "type": "SCALAR"
    },
    {
      "bufferView": 15,
      "componentType": 5126,
      "count": 8,
      "type": "VEC3",
      "max": [
        0.225,
        0.425,
        0.25
      ],
      "min": [
        -0.225,
        -0.425,
        -0.25
      ]
    },
    {
      "bufferView": 16,
      "componentType": 5126,
      "count": 8,
      "type": "VEC3"
    },
    {
      "bufferView": 17,
      "componentType": 5125,
      "count": 36,
      "type": "SCALAR"
    }
  ],
  "bufferViews": [
    {
      "buffer": 0,
      "byteOffset": 0,
      "byteLength": 288,
      "target": 34962
    },
    {
      "buffer": 0,
      "byteOffset": 288,
      "byteLength": 288,
      "target": 34962
    },
    {
      "buffer": 0,
      "byteOffset": 576,
      "byteLength": 144,
      "target": 34963
    },
    {
      "buffer": 1,
      "byteOffset": 0,
      "byteLength": 96,
      "target": 34962
    },
    {
      "buffer": 1,
      "byteOffset": 96,
      "byteLength": 288,
      "target": 34962
    },
    {
      "buffer": 1,
      "byteOffset": 384,
      "byteLength": 144,
      "target": 34963
    },
    {
      "buffer": 2,
      "byteOffset": 0,
      "byteLength": 96,
      "target": 34962
    },
    {
      "buffer": 2,
      "byteOffset": 96,
      "byteLength": 288,
      "target": 34962
    },
    {
      "buffer": 2,
      "byteOffset": 384,
      "byteLength": 144,
      "target": 34963
    },
    {
      "buffer": 3,
      "byteOffset": 0,
      "byteLength": 96,
      "target": 34962
    },
    {
      "buffer": 3,
      "byteOffset": 96,
      "byteLength": 288,
      "target": 34962
    },
    {
      "buffer": 3,
      "byteOffset": 384,
      "byteLength": 144,
      "target": 34963
    },
    {
      "buffer": 4,
      "byteOffset": 0,
      "byteLength": 96,
      "target": 34962
    },
    {
      "buffer": 4,
      "byteOffset": 96,
      "byteLength": 288,
      "target": 34962
    },
    {
      "buffer": 4,
      "byteOffset": 384,
      "byteLength": 144,
      "target": 34963
    },
    {
      "buffer": 5,
      "byteOffset": 0,
      "byteLength": 96,
      "target": 34962
    },
    {
      "buffer": 5,
      "byteOffset": 96,
      "byteLength": 288,
      "target": 34962
    },
    {
      "buffer": 5,
      "byteOffset": 384,
      "byteLength": 144,
      "target": 34963
    }
  ],
  "buffers": [
    {
      "uri": "room.bin",
      "byteLength": 720
    },
    {
      "uri": "wood_table.bin",
      "byteLength": 528
    },
    {
      "uri": "dining_chair_0.bin",
      "byteLength": 528
    },
    {
      "uri": "dining_chair_1.bin",
      "byteLength": 528
    },
    {
      "uri": "dining_chair_2.bin",
      "byteLength": 528
    },
    {
      "uri": "dining_chair_3.bin",
      "byteLength": 528
    }
  ],
  "materials": [
    {
      "name": "RoomMaterial",
      "pbrMetallicRoughness": {
        "baseColorFactor": [
          0.9,
          0.88,
          0.85,
          1.0
        ],
        "metallicFactor": 0.0,
        "roughnessFactor": 0.8
      }
    },
    {
      "name": "wood_table_material",
      "pbrMetallicRoughness": {
        "baseColorFactor": [
          0.6,
          0.4,
          0.2,
          1.0
        ],
        "metallicFactor": 0.1,
        "roughnessFactor": 0.7
      }
    },
    {
      "name": "dining_chair_0_material",
      "pbrMetallicRoughness": {
        "baseColorFactor": [
          0.6,
          0.3,
          0.1,
          1.0
        ],
        "metallicFactor": 0.1,
        "roughnessFactor": 0.7
      }
    },
    {
      "name": "dining_chair_1_material",
      "pbrMetallicRoughness": {
        "baseColorFactor": [
          0.6,
          0.3,
          0.1,
          1.0
        ],
        "metallicFactor": 0.1,
        "roughnessFactor": 0.7
      }
    },
    {
      "name": "dining_chair_2_material",
      "pbrMetallicRoughness": {
        "baseColorFactor": [
          0.6,
          0.3,
          0.1,
          1.0
        ],
        "metallicFactor": 0.1,
        "roughnessFactor": 0.7
      }
    },
    {
      "name": "dining_chair_3_material",
      "pbrMetallicRoughness": {
        "baseColorFactor": [
          0.6,
          0.3,
          0.1,
          1.0
        ],
        "metallicFactor": 0.1,
        "roughnessFactor": 0.7
      }
    }
  ]
}