{
  "asset": {
    "version": "2.0",
    "generator": "text2room"
  },
  "scene": 0,
  "scenes": [
    {
      "nodes": [
        0,
        2,
        4,
        6,
        8
      ]
    }
  ],
  "nodes": [
    {
      "mesh": 0,
      "name": "Room"
    },
    {
      "name": "bed_mesh",
      "mesh": 1
    },
    {
      "name": "bed",
      "translation": [
        0.5298218341399581,
        0.25,
        -1.6
      ],
      "rotation": [
        0.0,
        0.0,
        0.0,
        1.0
      ],
      "scale": [
        1.0,
        1.0,
        1.0
      ],
      "children": [
        1
      ]
    },
    {
      "name": "kitchen_cabinet_0_mesh",
      "mesh": 2
    },
    {
      "name": "kitchen_cabinet_0",
      "translation": [
        -2.6,
        0.45,
        -0.975
      ],
      "rotation": [
        0.0,
        0.7071067811865475,
        0.0,
        0.7071067811865476
      ],
      "scale": [
        1.0,
        1.0,
        1.0
      ],
      "children": [
        3
      ]
    },
    {
      "name": "kitchen_cabinet_1_mesh",
      "mesh": 3
    },
    {
      "name": "kitchen_cabinet_1",
      "translation": [
        -2.6,
        0.45,
        0.975
      ],
      "rotation": [
        0.0,
        0.7071067811865475,
        0.0,
        0.7071067811865476
      ],
      "scale": [
        1.0,
        1.0,
        1.0
      ],
      "children": [
        5
      ]
    },
    {
      "name": "floor_lamp_mesh",
      "mesh": 4
    },
    {
      "name": "floor_lamp",
      "translation": [
        2.7,
        0.8,
        -2.0899526770202654
      ],
      "rotation": [
        0.0,
        -0.7071067811865475,
        0.0,
        0.7071067811865476
      ],
      "scale": [
        1.0,
        1.0,
        1.0
      ],
      "children": [
        7
      ]
    }
  ],
  "meshes": [
    {
      "name": "RoomMesh",
      "primitives": [
        {
          "attributes": {
            "POSITION": 0,
            "NORMAL": 1
          },
          "indices": 2,
          "material": 0
        }
      ]
    },
    {
      "name": "bed_mesh",
      "primitives": [
        {
          "attributes": {
            "POSITION": 3,
            "NORMAL": 4
          },
          "indices": 5,
          "material": 1
        }
      ]
    },
    {
      "name": "kitchen_cabinet_0_mesh",
      "primitives": [
        {
          "attributes": {
            "POSITION": 6,
            "NORMAL": 7
          },
          "indices": 8,
          "material": 2
        }
      ]
    },
    {
      "name": "kitchen_cabinet_1_mesh",
      "primitives": [
        {
          "attributes": {
            "POSITION": 9,
            "NORMAL": 10
          },
          "indices": 11,
          "material": 3
        }
      ]
    },
    {
      "name": "floor_lamp_mesh",
      "primitives": [
        {
          "attributes": {
            "POSITION": 12,
            "NORMAL": 13
          },
          "indices": 14,
          "material": 4
        }
      ]
    }
  ],
  "accessors": [
    {
      "bufferView": 0,
      "componentType": 5126,
      "count": 24,
      "type": "VEC3",
      "max": [
        3.0,
        3.0,
        2.5
      ],
      "min": [
        -3.0,
        0,
        -2.5
      ]
    },
    {
      "bufferView": 1,
      "componentType": 5126,
      "count": 24,
      "type": "VEC3"
    },
    {
      "bufferView": 2,
      "componentType": 5125,
      "count": 36,
      "type": "SCALAR"
    },
    {
      "bufferView": 3,
      "componentType": 5126,
      "count": 8,
      "type": "VEC3",
      "max": [
        1.0,
        0.25,
        0.8
      ],
      "min": [
        -1.0,
        -0.25,
        -0.8
      ]
    },
    {
      "bufferView": 4,
      "componentType": 5126,
      "count": 8,
      "type": "VEC3"
    },
    {
      "bufferView": 5,
      "componentType": 5125,
      "count": 36,
      "type": "SCALAR"
    },
    {
      "bufferView": 6,
      "componentType": 5126,
      "count": 8,
      "type": "VEC3",
      "max": [
        0.9,
        0.45,
        0.3
      ],
      "min": [
        -0.9,
        -0.45,
        -0.3
      ]
    },
    {
      "bufferView": 7,
      "componentType": 5126,
      "count": 8,
      "type": "VEC3"
    },
    {
      "bufferView": 8,
      "componentType": 5125,
      "count": 36,
      "type": "SCALAR"
    },
    {
      "bufferView": 9,
      "componentType": 5126,
      "count": 8,
      "type": "VEC3",
      "max": [
        0.9,
        0.45,
        0.3
      ],
      "min": [
        -0.9,
        -0.45,
        -0.3
      ]
    },
    {
      "bufferView": 10,
      "componentType": 5126,
      "count": 8,
      "type": "VEC3"
    },
    {
      "bufferView": 11,
      "componentType": 5125,
      "count": 36,
      "type": "SCALAR"
    },
    {
      "bufferView": 12,
      "componentType": 5126,
      "count": 8,
      "type": "VEC3",
      "max": [
        0.2,
        0.8,
        0.2
      ],
      "min": [
        -0.2,
        -0.8,
        -0.2
      ]
    },
    {
      "bufferView": 13,
      "componentType": 5126,
      "count": 8,
      "type": "VEC3"
    },
    {
      "bufferView": 14,
      "componentType": 5125,
      "count": 36,
      "type": "SCALAR"
    }
  ],
  "bufferViews": [
    {
      "buffer": 0,
      "byteOffset": 0,
      "byteLength": 288,
      "target": 34962
    },
    {
      "buffer": 0,
      "byteOffset": 288,
      "byteLength": 288,
      "target": 34962
    },
    {
      "buffer": 0,
      "byteOffset": 576,
      "byteLength": 144,
      "target": 34963
    },
    {
      "buffer": 1,
      "byteOffset": 0,
      "byteLength": 96,
      "target": 34962
    },
    {
      "buffer": 1,
      "byteOffset": 96,
      "byteLength": 288,
      "target": 34962
    },
    {
      "buffer": 1,
      "byteOffset": 384,
      "byteLength": 144,
      "target": 34963
    },
    {
      "buffer": 2,
      "byteOffset": 0,
      "byteLength": 96,
      "target": 34962
    },
    {
      "buffer": 2,
      "byteOffset": 96,
      "byteLength": 288,
      "target": 34962
    },
    {
      "buffer": 2,
      "byteOffset": 384,
      "byteLength": 144,
      "target": 34963
    },
    {
      "buffer": 3,
      "byteOffset": 0,
      "byteLength": 96,
      "target": 34962
    },
    {
      "buffer": 3,
      "byteOffset": 96,
      "byteLength": 288,
      "target": 34962
    },
    {
      "buffer": 3,
      "byteOffset": 384,
      "byteLength": 144,
      "target": 34963
    },
    {
      "buffer": 4,
      "byteOffset": 0,
      "byteLength": 96,
      "target": 34962
    },
    {
      "buffer": 4,
      "byteOffset": 96,
      "byteLength": 288,
      "target": 34962
    },
    {
      "buffer": 4,
      "byteOffset": 384,
      "byteLength": 144,
      "target": 34963
    }
  ],
  "buffers": [
    {
      "uri": "room.bin",
      "byteLength": 720
    },
    {
      "uri": "bed.bin",
      "byteLength": 528
    },
    {
      "uri": "kitchen_cabinet_0.bin",
      "byteLength": 528
    },
    {
      "uri": "kitchen_cabinet_1.bin",
      "byteLength": 528
    },
    {
      "uri": "floor_lamp.bin",
      "byteLength": 528
    }
  ],
  "materials": [
    {
      "name": "RoomMaterial",
      "pbrMetallicRoughness": {
        "baseColorFactor": [
          0.9,
          0.88,
          0.85,
          1.0
        ],
        "metallicFactor": 0.0,
        "roughnessFactor": 0.8
      }
    },
    {
      "name": "bed_material",
      "pbrMetallicRoughness": {
        "baseColorFactor": [
          0.8,
          0.7,
          0.6,
          1.0
        ],
        "metallicFactor": 0.1,
        "roughnessFactor": 0.7
      }
    },
    {
      "name": "kitchen_cabinet_0_material",
      "pbrMetallicRoughness": {
        "baseColorFactor": [
          0.5,
          0.35,
          0.2,
          1.0
        ],
        "metallicFactor": 0.1,
        "roughnessFactor": 0.7
      }
    },
    {
      "name": "kitchen_cabinet_1_material",
      "pbrMetallicRoughness": {
        "baseColorFactor": [
          0.5,
          0.35,
          0.2,
          1.0
        ],
        "metallicFactor": 0.1,
        "roughnessFactor": 0.7
      }
    },
    {
      "name": "floor_lamp_material",
      "pbrMetallicRoughness": {
        "baseColorFactor": [
          0.9,
          0.9,
          0.7,
          1.0
        ],
        "metallicFactor": 0.1,
        "roughnessFactor": 0.7
      }
    }
  ]
}