{
  "asset": {
    "version": "2.0",
    "generator": "text2room"
  },
  "scene": 0,
  "scenes": [
    {
      "nodes": [
        0,
        2,
        4,
        6,
        8,
        10
      ]
    }
  ],
  "nodes": [
    {
      "mesh": 0,
      "name": "Room"
    },
    {
      "name": "blue_sofa_0_mesh",
      "mesh": 1
    },
    {
      "name": "blue_sofa_0",
      "translation": [
        -1.1750000000000003,
        0.45,
        -1.9499999999999997
      ],
      "rotation": [
        0.0,
        0.0,
        0.0,
        1.0
      ],
      "scale": [
        1.0,
        1.0,
        1.0
      ],
      "children": [
        1
      ]
    },
    {
      "name": "blue_sofa_1_mesh",
      "mesh": 2
    },
    {
      "name": "blue_sofa_1",
      "translation": [
        -0.9410834902940026,
        0.45,
        0.874943492406846
      ],
      "rotation": [
        0.0,
        0.8498383543486077,
        0.0,
        -0.5270434246606729
      ],
      "scale": [
        1.0,
        1.0,
        1.0
      ],
      "children": [
        3
      ]
    },
    {
      "name": "floor_lamp_0_mesh",
      "mesh": 3
    },
    {
      "name": "floor_lamp_0",
      "translation": [
        -2.6999999999999997,
        0.8,
        -0.55
      ],
      "rotation": [
        0.0,
        0.7071067811865475,
        0.0,
        0.7071067811865476
      ],
      "scale": [
        1.0,
        1.0,
        1.0
      ],
      "children": [
        5
      ]
    },
    {
      "name": "floor_lamp_1_mesh",
      "mesh": 4
    },
    {
      "name": "floor_lamp_1",
      "translation": [
        2.0393337520651964,
        0.8,
        -1.7348569029564522
      ],
      "rotation": [
        0.0,
        0.9700669822619676,
        0.0,
        0.24283749695044926
      ],
      "scale": [
        1.0,
        1.0,
        1.0
      ],
      "children": [
        7
      ]
    },
    {
      "name": "floor_lamp_2_mesh",
      "mesh": 5
    },
    {
      "name": "floor_lamp_2",
      "translation": [
        -2.6999999999999997,
        0.8,
        0.55
      ],
      "rotation": [
        0.0,
        0.7071067811865475,
        0.0,
        0.7071067811865476
      ],
      "scale": [
        1.0,
        1.0,
        1.0
      ],
      "children": [
        9
      ]
    }
  ],
  "meshes": [
    {
      "name": "RoomMesh",
      "primitives": [
        {
          "attributes": {
            "POSITION": 0,
            "NORMAL": 1
          },
          "indices": 2,
          "material": 0
        }
      ]
    },
    {
      "name": "blue_sofa_0_mesh",
      "primitives": [
        {
          "attributes": {
            "POSITION": 3,
            "NORMAL": 4
          },
          "indices": 5,
          "material": 1
        }
      ]
    },
    {
      "name": "blue_sofa_1_mesh",
      "primitives": [
        {
          "attributes": {
            "POSITION": 6,
            "NORMAL": 7
          },
          "indices": 8,
          "material": 2
        }
      ]
    },
    {
      "name": "floor_lamp_0_mesh",
      "primitives": [
        {
          "attributes": {
            "POSITION": 9,
            "NORMAL": 10
          },
          "indices": 11,
          "material": 3
        }
      ]
    },
    {
      "name": "floor_lamp_1_mesh",
      "primitives": [
        {
          "attributes": {
            "POSITION": 12,
            "NORMAL": 13
          },
          "indices": 14,
          "material": 4
        }
      ]
    },
    {
      "name": "floor_lamp_2_mesh",
      "primitives": [
        {
          "attributes": {
            "POSITION": 15,
            "NORMAL": 16
          },
          "indices": 17,
          "material": 5
        }
      ]
    }
  ],
  "accessors": [
    {
      "bufferView": 0,
      "componentType": 5126,
      "count": 24,
      "type": "VEC3",
      "max": [
        3.0,
        3.0,
        2.5
      ],
      "min": [
        -3.0,
        0,
        -2.5
      ]
    },
    {
      "bufferView": 1,
      "componentType": 5126,
      "count": 24,
      "type": "VEC3"
    },
    {
      "bufferView": 2,
      "componentType": 5125,
      "count": 36,
      "type": "SCALAR"
    },
    {
      "bufferView": 3,
      "componentType": 5126,
      "count": 8,
      "type": "VEC3",
      "max": [
        1.1,
        0.45,
        0.45
      ],
      "min": [
        -1.1,
        -0.45,
        -0.45
      ]
    },
    {
      "bufferView": 4,
      "componentType": 5126,
      "count": 8,
      "type": "VEC3"
    },
    {
      "bufferView": 5,
      "componentType": 5125,
      "count": 36,
      "type": "SCALAR"
    },
    {
      "bufferView": 6,
      "componentType": 5126,
      "count": 8,
      "type": "VEC3",
      "max": [
        1.1,
        0.45,
        0.45
      ],
      "min": [
        -1.1,
        -0.45,
        -0.45
      ]
    },
    {
      "bufferView": 7,
      "componentType": 5126,
      "count": 8,
      "type": "VEC3"
    },
    {
      "bufferView": 8,
      "componentType": 5125,
      "count": 36,
      "type": "SCALAR"
    },
    {
      "bufferView": 9,
      "componentType": 5126,
      "count": 8,
      "type": "VEC3",
      "max": [
        0.2,
        0.8,
        0.2
      ],
      "min": [
        -0.2,
        -0.8,
        -0.2
      ]
    },
    {
      "bufferView": 10,
      "componentType": 5126,
      "count": 8,
      "type": "VEC3"
    },
    {
      "bufferView": 11,
      "componentType": 5125,
      "count": 36,
      "type": "SCALAR"
    },
    {
      "bufferView": 12,
      "componentType": 5126,
      "count": 8,
      "type": "VEC3",
      "max": [
        0.2,
        0.8,
        0.2
      ],
      "min": [
        -0.2,
        -0.8,
        -0.2
      ]
    },
    {
      "bufferView": 13,
      "componentType": 5126,
      "count": 8,
      "type": "VEC3"
    },
    {
      "bufferView": 14,
      "componentType": 5125,
      "count": 36,
      "type": "SCALAR"
    },
    {
      "bufferView": 15,
      "componentType": 5126,
      "count": 8,
      "type": "VEC3",
      "max": [
        0.2,
        0.8,
        0.2
      ],
      "min": [
        -0.2,
        -0.8,
        -0.2
      ]
    },
    {
      "bufferView": 16,
      "componentType": 5126,
      "count": 8,
      "type": "VEC3"
    },
    {
      "bufferView": 17,
      "componentType": 5125,
      "count": 36,
      "type": "SCALAR"
    }
  ],
  "bufferViews": [
    {
      "buffer": 0,
      "byteOffset": 0,
      "byteLength": 288,
      "target": 34962
    },
    {
      "buffer": 0,
      "byteOffset": 288,
      "byteLength": 288,
      "target": 34962
    },
    {
      "buffer": 0,
      "byteOffset": 576,
      "byteLength": 144,
      "target": 34963
    },
    {
      "buffer": 1,
      "byteOffset": 0,
      "byteLength": 96,
      "target": 34962
    },
    {
      "buffer": 1,
      "byteOffset": 96,
      "byteLength": 288,
      "target": 34962
    },
    {
      "buffer": 1,
      "byteOffset": 384,
      "byteLength": 144,
      "target": 34963
    },
    {
      "buffer": 2,
      "byteOffset": 0,
      "byteLength": 96,
      "target": 34962
    },
    {
      "buffer": 2,
      "byteOffset": 96,
      "byteLength": 288,
      "target": 34962
    },
    {
      "buffer": 2,
      "byteOffset": 384,
      "byteLength": 144,
      "target": 34963
    },
    {
      "buffer": 3,
      "byteOffset": 0,
      "byteLength": 96,
      "target": 34962
    },
    {
      "buffer": 3,
      "byteOffset": 96,
      "byteLength": 288,
      "target": 34962
    },
    {
      "buffer": 3,
      "byteOffset": 384,
      "byteLength": 144,
      "target": 34963
    },
    {
      "buffer": 4,
      "byteOffset": 0,
      "byteLength": 96,
      "target": 34962
    },
    {
      "buffer": 4,
      "byteOffset": 96,
      "byteLength": 288,
      "target": 34962
    },
    {
      "buffer": 4,
      "byteOffset": 384,
      "byteLength": 144,
      "target": 34963
    },
    {
      "buffer": 5,
      "byteOffset": 0,
      "byteLength": 96,
      "target": 34962
    },
    {
      "buffer": 5,
      "byteOffset": 96,
      "byteLength": 288,
      "target": 34962
    },
    {
      "buffer": 5,
      "byteOffset": 384,
      "byteLength": 144,
      "target": 34963
    }
  ],
  "buffers": [
    {
      "uri": "room.bin",
      "byteLength": 720
    },
    {
      "uri": "blue_sofa_0.bin",
      "byteLength": 528
    },
    {
      "uri": "blue_sofa_1.bin",
      "byteLength": 528
    },
    {
      "uri": "floor_lamp_0.bin",
      "byteLength": 528
    },
    {
      "uri": "floor_lamp_1.bin",
      "byteLength": 528
    },
    {
      "uri": "floor_lamp_2.bin",
      "byteLength": 528
    }
  ],
  "materials": [
    {
      "name": "RoomMaterial",
      "pbrMetallicRoughness": {
        "baseColorFactor": [
          0.9,
          0.88,
          0.85,
          1.0
        ],
        "metallicFactor": 0.0,
        "roughnessFactor": 0.8
      }
    },
    {
      "name": "blue_sofa_0_material",
      "pbrMetallicRoughness": {
        "baseColorFactor": [
          0.2,
          0.4,
          0.8,
          1.0
        ],
        "metallicFactor": 0.1,
        "roughnessFactor": 0.7
      }
    },
    {
      "name": "blue_sofa_1_material",
      "pbrMetallicRoughness": {
        "baseColorFactor": [
          0.2,
          0.4,
          0.8,
          1.0
        ],
        "metallicFactor": 0.1,
        "roughnessFactor": 0.7
      }
    },
    {
      "name": "floor_lamp_0_material",
      "pbrMetallicRoughness": {
        "baseColorFactor": [
          0.9,
          0.9,
          0.7,
          1.0
        ],
        "metallicFactor": 0.1,
        "roughnessFactor": 0.7
      }
    },
    {
      "name": "floor_lamp_1_material",
      "pbrMetallicRoughness": {
        "baseColorFactor": [
          0.9,
          0.9,
          0.7,
          1.0
        ],
        "metallicFactor": 0.1,
        "roughnessFactor": 0.7
      }
    },
    {
      "name": "floor_lamp_2_material",
      "pbrMetallicRoughness": {
        "baseColorFactor": [
          0.9,
          0.9,
          0.7,
          1.0
        ],
        "metallicFactor": 0.1,
        "roughnessFactor": 0.7
      }
    }
  ]
}